<?xml version="1.0" encoding="utf-8"?>
<!-- Generator: Adobe Illustrator 25.1.0, SVG Export Plug-In . SVG Version: 6.00 Build 0)  -->
<svg version="1.1" id="Layer_1" xmlns="http://www.w3.org/2000/svg" xmlns:xlink="http://www.w3.org/1999/xlink" x="0px" y="0px"
	 viewBox="0 0 1008 648" style="enable-background:new 0 0 1008 648;" xml:space="preserve">
<style type="text/css">
	.st0{fill:none;stroke:#999;stroke-miterlimit:10;opacity:0.1;}
	.st1{fill:#aba;opacity:0.15;}
	.st2{fill:#bcb;opacity:0.15;}
</style>
<line vector-effect="non-scaling-stroke" class="st0" x1="0" y1="72" x2="1008" y2="72"/>
<line vector-effect="non-scaling-stroke" class="st0" x1="0" y1="144" x2="1008" y2="144"/>
<line vector-effect="non-scaling-stroke" class="st0" x1="0" y1="216" x2="1008" y2="216"/>
<line vector-effect="non-scaling-stroke" class="st0" x1="0" y1="288" x2="1008" y2="288"/>
<line vector-effect="non-scaling-stroke" class="st0" x1="0" y1="360" x2="1008" y2="360"/>
<line vector-effect="non-scaling-stroke" class="st0" x1="0" y1="432" x2="1008" y2="432"/>
<line vector-effect="non-scaling-stroke" class="st0" x1="0" y1="504" x2="1008" y2="504"/>
<line vector-effect="non-scaling-stroke" class="st0" x1="0" y1="576" x2="1008" y2="576"/>
<polygon vector-effect="non-scaling-stroke" class="st2" points="1008,648 0,648 72,624 144,648 216,542 288,614 360,326 432,470 504,378 
	576,522 648,614 720,542 792,614 864,398 936,326 1008,182 "/>
<polygon vector-effect="non-scaling-stroke" class="st1" points="1008,648 0,648 0,552 72,440 144,440 216,378 288,552 360,490 
	432,614 504,512 576,634 648,450 720,450 792,398 864,512 936,542 1008,398 "/>
</svg>
