<?xml version="1.0" encoding="utf-8"?>
<!-- Generator: Adobe Illustrator 25.1.0, SVG Export Plug-In . SVG Version: 6.00 Build 0)  -->
<svg version="1.1" id="Layer_1" xmlns="http://www.w3.org/2000/svg" xmlns:xlink="http://www.w3.org/1999/xlink" x="0px" y="0px"
	 viewBox="0 0 310 56" style="enable-background:new 0 0 310 56;" xml:space="preserve">
<style type="text/css">
	.st0{fill:#BCD531;}
	.st1{fill:#4B116F;}
	.st2{fill:#777777;}
</style>
<g>
	<path class="st0" d="M118.7,30c0,10.2-8.4,18.6-18.6,18.6v6.7c14,0,25.3-11.4,25.3-25.3H118.7z"/>
	<path class="st0" d="M74.7,30h6.7c0-10.3,8.4-18.6,18.6-18.6V4.6C86.1,4.6,74.7,16,74.7,30z"/>
	<path class="st0" d="M101.1,14.6v6.7c4.2,0,7.6,3.5,7.6,7.7h6.7C115.4,21,109,14.6,101.1,14.6z"/>
	<path class="st0" d="M84.7,31c0,7.9,6.4,14.3,14.3,14.3v-6.7c-4.2,0-7.6-3.4-7.6-7.7h-6.7C84.7,30.9,84.7,31,84.7,31z"/>
	<path class="st1" d="M104.4,29.8c0,2.4-2,4.4-4.4,4.4s-4.3-2-4.3-4.4s1.9-4.4,4.3-4.4S104.4,27.4,104.4,29.8z"/>
	<rect x="74.2" y="19.1" width="7.3" height="24.9"/>
	<path d="M133.7,18.6c-3,0-5.6,1.6-7.4,3.2v-2.7h-7.7V44h7.7V28.2c0.6-1.4,1.9-3.2,4.5-3.2c4.3,0,4.3,4.6,4.3,4.6V44h7.6
		c0,0,0-11.6,0-14.4C142.8,26.7,143.3,18.6,133.7,18.6z"/>
	<circle cx="77.8" cy="11.3" r="4.6"/>
	<path d="M18.5,11.6l0.6-5.9C5.1,2.2,5.2,12.4,5.2,16.1v3H0V25h5.2c0,8.3,0,19,0,19h7.6V25H18v-5.9h-5.2v-3
		C12.8,9.5,18.5,11.6,18.5,11.6z"/>
	<path d="M21.6,35.1v-16h7.5v14.5c0,2.5,2.1,4.6,4.6,4.6s4.6-2,4.6-4.6V19.1h7.3v20.1c0,0-4.6-0.8-7.3,1.7c-2.8,2.5-4.3,3.7-7.8,3.7
		C28.3,44.6,21.6,43.8,21.6,35.1z"/>
	<path d="M49.7,41.2l4.2-4.5c0,0,2.1,1.8,5.4,1.8c1,0,1.8-0.2,2.4-0.5c0.5-0.4,0.8-0.8,0.8-1.5c0-1-1.1-1.8-3.3-2.3
		c-0.7-0.2-1.3-0.4-1.7-0.5C54.9,33,53.1,32.1,52,31c-1.2-1.2-1.7-2.6-1.7-4.4c0-2.3,0.8-4.1,2.6-5.5c1.7-1.4,4-2.1,7-2.1
		c5.3,0,7.6,1.7,9.3,2.4l-3.9,4.2c0,0-1.9-1.4-4.4-1.4c-3.1,0-3.1,1.3-3.1,1.9c0,0.9,1.2,1.8,3.4,2.4c0.5,0.1,0.9,0.3,1.1,0.3
		c3,0.8,5,1.8,6.1,2.9c1.2,1.2,1.7,2.7,1.7,4.6c0,2.4-0.9,4.4-2.8,5.9s-4.3,2.3-7.4,2.3C55,44.5,51.3,42.1,49.7,41.2z"/>
	<g>
		<path class="st2" d="M23.2,15.9h-1.6V9.1h1.5v1.1c0.3-0.4,0.6-0.8,1-1s0.9-0.3,1.4-0.3c0.6,0,1,0.1,1.3,0.3c0.4,0.3,0.6,0.6,0.8,1
			c0.4-0.4,0.7-0.7,1.2-1c0.4-0.2,0.8-0.3,1.3-0.3s0.8,0.1,1.2,0.3c0.3,0.1,0.6,0.4,0.8,0.7c0.1,0.2,0.1,0.3,0.1,0.5
			c0.1,0.2,0.1,0.5,0.1,0.9v0.6V16h-1.5v-3.6c0-0.9-0.1-1.5-0.3-1.8s-0.6-0.4-1-0.4c-0.6,0-1.1,0.2-1.3,0.6c-0.3,0.3-0.4,1-0.4,2
			v3.1h-1.6v-3.5c0-0.8-0.1-1.4-0.3-1.7c-0.2-0.4-0.5-0.5-1-0.5c-0.4,0-0.6,0-0.9,0.2c-0.2,0.1-0.4,0.3-0.6,0.6
			c-0.1,0.1-0.1,0.3-0.2,0.5c0,0.3,0,0.7,0,1.3C23.2,12.8,23.2,15.9,23.2,15.9z"/>
		<path class="st2" d="M42.3,12.7h-5.4c0,0.7,0.2,1.1,0.5,1.5c0.4,0.4,0.8,0.5,1.4,0.5c0.5,0,0.9,0,1.2-0.3c0.3-0.2,0.6-0.5,0.9-1
			l1.3,0.7c-0.4,0.7-0.9,1.2-1.4,1.6c-0.6,0.3-1.2,0.5-2,0.5c-1.1,0-1.9-0.3-2.6-1c-0.6-0.7-0.9-1.6-0.9-2.6c0-1.1,0.3-2,0.9-2.6
			c0.7-0.7,1.6-1.1,2.6-1.1c1.1,0,1.9,0.4,2.5,1s1,1.5,1,2.6V12.7z M40.7,11.7c-0.1-0.5-0.3-0.9-0.6-1.1c-0.3-0.3-0.7-0.4-1.3-0.4
			c-0.5,0-0.9,0.1-1.2,0.4c-0.3,0.2-0.5,0.6-0.6,1.1H40.7z"/>
		<path class="st2" d="M50.7,4.9h1.5v11h-1.5V15c-0.3,0.4-0.6,0.7-1,0.9c-0.4,0.1-0.8,0.2-1.3,0.2c-0.9,0-1.7-0.3-2.2-0.9
			c-0.5-0.7-0.8-1.6-0.8-2.7s0.3-2,0.8-2.6c0.6-0.7,1.3-1,2.2-1c0.6,0,1,0.1,1.4,0.3c0.4,0.3,0.7,0.6,0.9,1L50.7,4.9L50.7,4.9z
			 M50.7,12.5c0-0.7-0.2-1.2-0.5-1.6c-0.3-0.4-0.8-0.6-1.3-0.6c-0.6,0-1.1,0.2-1.4,0.6c-0.4,0.4-0.5,1-0.5,1.7s0.1,1.3,0.5,1.6
			c0.3,0.4,0.8,0.6,1.3,0.6c0.6,0,1-0.2,1.4-0.6C50.5,13.7,50.7,13.2,50.7,12.5z"/>
		<path class="st2" d="M56.2,6.2c0-0.2,0.1-0.5,0.3-0.6c0.2-0.2,0.4-0.3,0.7-0.3s0.5,0.1,0.7,0.3c0.2,0.1,0.3,0.4,0.3,0.6
			c0,0.3-0.1,0.6-0.3,0.7c-0.2,0.2-0.4,0.3-0.7,0.3s-0.5-0.1-0.7-0.3C56.3,6.7,56.2,6.5,56.2,6.2z M56.4,15.9V9.1h1.5v6.8H56.4z"/>
		<path class="st2" d="M68.5,15.9h-1.6V15c-0.3,0.4-0.6,0.7-0.9,0.9c-0.4,0.1-0.8,0.2-1.3,0.2c-1,0-1.7-0.3-2.3-0.9
			c-0.5-0.7-0.8-1.6-0.8-2.7s0.3-2,0.9-2.6c0.5-0.7,1.3-1,2.2-1c0.5,0,1,0.1,1.4,0.3c0.4,0.3,0.6,0.6,0.8,1V9.1h1.6V15.9L68.5,15.9z
			 M66.9,12.5c0-0.7-0.1-1.2-0.4-1.6c-0.4-0.4-0.8-0.6-1.4-0.6s-1.1,0.2-1.4,0.6c-0.3,0.4-0.5,1-0.5,1.7s0.2,1.3,0.5,1.6
			c0.3,0.4,0.8,0.6,1.4,0.6c0.5,0,1-0.2,1.3-0.6C66.8,13.7,66.9,13.2,66.9,12.5z"/>
	</g>
</g>
<g>
	<path d="M162.4,32.5v-1h4.2v1c0,5.9,3.8,8.6,9.1,8.6c5.5,0,8.4-2.8,8.4-6.5c0-3.9-3.1-5.2-7.8-6.3l-2.6-0.6
		c-6.2-1.5-10.4-3.9-10.4-9.8S168,8.3,175,8.3s12.5,3.7,12.5,10.8v2.1h-4.2v-2.1c0-5.1-3.5-7.2-8.3-7.2c-4.7,0-7.7,2.1-7.7,5.9
		c0,3.7,2.8,5,7.4,6.2l2.6,0.6c6.1,1.4,10.8,3.7,10.8,9.9s-5,10.3-12.6,10.3C168,44.7,162.4,40.7,162.4,32.5z"/>
	<path d="M198.2,39.7V23h-7.3v-3.5h7.3v-8.6h4v8.7h8V23h-8v16.1c0,1,0.4,1.5,1.4,1.5h5.5V44h-6.5C199.7,44,198.2,42.4,198.2,39.7z"
		/>
	<path d="M215,34.4V19.6h3.9v14.5c0,4.8,2.6,7,6.8,7c4.7,0,8-3.1,8-9.2V19.6h3.9V44h-3.8v-4.2h-0.7c-1.1,2.4-3.4,4.6-8.4,4.6
		C219.2,44.5,215,40.9,215,34.4z"/>
	<path d="M242.7,32.1v-0.7c0-7.8,5.2-12.6,11.6-12.6c5.1,0,7.7,2.3,8.9,4.5h0.7V9h4v35H264v-4h-0.7c-1.3,2.4-3.9,4.8-9,4.8
		C247.8,44.7,242.7,40,242.7,32.1z M263.8,32v-0.5c0-5.8-3.5-9.2-8.6-9.2c-5,0-8.6,3.4-8.6,9.2V32c0,5.8,3.6,9.2,8.6,9.2
		C260.2,41.2,263.8,37.8,263.8,32z"/>
	<path d="M273.8,12.8c0-1.8,1.3-3.1,3-3.1c1.8,0,3.1,1.3,3.1,3.1s-1.3,3-3.1,3C275.1,15.8,273.8,14.5,273.8,12.8z M274.8,19.6h3.9
		V44h-3.9V19.6z"/>
	<path d="M283.8,32.1v-0.7c0-7.7,5.1-12.6,12.5-12.6s12.5,5,12.5,12.6v0.7c0,7.7-5.1,12.6-12.5,12.6S283.8,39.8,283.8,32.1z
		 M304.9,32v-0.5c0-5.6-3.4-9.2-8.6-9.2s-8.6,3.6-8.6,9.2V32c0,5.6,3.4,9.2,8.6,9.2S304.9,37.6,304.9,32z"/>
</g>
</svg>
