<?xml version="1.0" encoding="utf-8"?>
<svg version="1.1" id="Layer_1"
	 xmlns="http://www.w3.org/2000/svg" xmlns:xlink="http://www.w3.org/1999/xlink" x="0px" y="0px" viewBox="0 0 730 412"
	 style="enable-background:new 0 0 730 412;" xml:space="preserve">
<style type="text/css">
	.st0{fill:none;stroke:#000000;}
</style>
<rect vector-effect="non-scaling-stroke" x="1.2" y="1.5" class="st0" width="11.4" height="11.4"/>
<rect vector-effect="non-scaling-stroke" x="717.4" y="1.5" class="st0" width="11.4" height="11.4"/>
<rect vector-effect="non-scaling-stroke" x="1.2" y="200.6" class="st0" width="11.4" height="11.4"/>
<rect vector-effect="non-scaling-stroke" x="717.4" y="200.6" class="st0" width="11.4" height="11.4"/>
<rect vector-effect="non-scaling-stroke" x="1.2" y="399.1" class="st0" width="11.4" height="11.4"/>
<rect vector-effect="non-scaling-stroke" x="717.4" y="399.1" class="st0" width="11.4" height="11.4"/>
<rect vector-effect="non-scaling-stroke" x="359" y="1.5" class="st0" width="11.4" height="11.4"/>
<rect vector-effect="non-scaling-stroke" x="359" y="399.1" class="st0" width="11.4" height="11.4"/>
<rect vector-effect="non-scaling-stroke" x="6.9" y="7.2" class="st0" width="716.2" height="397.7"/>
<line vector-effect="non-scaling-stroke" class="st0" x1="6.9" y1="205.7" x2="723.1" y2="205.7"/>
<line vector-effect="non-scaling-stroke" class="st0" x1="7.2" y1="106.7" x2="723.4" y2="106.7"/>
<line vector-effect="non-scaling-stroke" class="st0" x1="7.2" y1="302.4" x2="723.4" y2="302.4"/>
<line vector-effect="non-scaling-stroke" class="st0" x1="364.7" y1="7.2" x2="364.7" y2="404.8"/>
<line vector-effect="non-scaling-stroke" class="st0" x1="185.5" y1="7.5" x2="185.5" y2="405.1"/>
<line vector-effect="non-scaling-stroke" class="st0" x1="543.9" y1="7.5" x2="543.9" y2="405.1"/>
</svg>
