<svg version="1.1" xmlns="http://www.w3.org/2000/svg" xmlns:xlink="http://www.w3.org/1999/xlink" x="0px" y="0px"
   viewBox="0 0 534 436">
<style type="text/css">
  .st0{fill:#008860;}
  .st1{fill:#FFFFFF;stroke:#000000;stroke-width:4.0032;stroke-miterlimit:10;}
  .st2{fill:#AB363C;}
  .st3{fill:none;stroke:#000000;stroke-width:4.0032;stroke-miterlimit:10;}
  .st4{fill:#FDE200;stroke:#000000;stroke-width:4.0032;stroke-miterlimit:10;}
  .st5{fill:#AB363C;stroke:#000000;stroke-width:1.5012;stroke-miterlimit:10;}
  .st6{fill:#AB363C;stroke:#000000;stroke-width:1.5012;stroke-linecap:round;stroke-linejoin:round;stroke-miterlimit:10;}
  .st7{fill:#FFFFFF;}
  .st8{fill:#FDE200;stroke:#000000;stroke-width:2.0016;stroke-miterlimit:10;}
  .st9{fill:#AB363C;stroke:#000000;stroke-width:1.9719;stroke-miterlimit:10;}
  .st10{fill:#FDE200;}
  .st11{font-family:'Helvetica-Light';}
  .st12{font-size:31.6807px;}
</style>
<path class="st0" d="M270.2,117.8c-52.2,0-94.6,42.3-94.6,94.6s42.3,94.6,94.6,94.6s94.6-42.3,94.6-94.6S322.4,117.8,270.2,117.8z"
  />
<polygon class="st1" points="489.5,211.4 441.5,174.4 308.1,174.4 308.1,54 271.1,6 234.1,54 234.1,174.4 100.7,174.4 52.7,211.4 
  100.7,248.4 234.1,248.4 234.1,369.8 271.1,417.8 308.1,369.8 308.1,248.4 441.5,248.4   "/>
<polygon class="st2" points="284,174.4 284,22.8 271.1,6 256.3,25.2 256.3,174.4  "/>
<polygon class="st2" points="256.3,249.4 256.3,401.1 269.2,417.8 284,398.7 284,249.4  "/>
<path class="st2" d="M472.2,198.1h-58.9c0.5,4.7,0.7,9.5,0.7,14.3c0,4.5-0.2,8.9-0.6,13.3h57.5l18.6-14.3L472.2,198.1z"/>
<path class="st2" d="M70,198.1h58.9c-0.5,4.7-0.7,9.5-0.7,14.3c0,4.5,0.2,8.9,0.6,13.3H71.3l-18.6-14.3L70,198.1z"/>
<polygon class="st3" points="489.5,211.4 441.5,174.4 308.1,174.4 308.1,54 271.1,6 234.1,54 234.1,174.4 100.7,174.4 52.7,211.4 
  100.7,248.4 234.1,248.4 234.1,369.8 271.1,417.8 308.1,369.8 308.1,248.4 441.5,248.4   "/>
<path class="st4" d="M270.2,68.6c-79.4,0-143.8,64.4-143.8,143.8s64.4,143.8,143.8,143.8S414,291.9,414,212.4
  S349.6,68.6,270.2,68.6z M270.2,306.2c-51.8,0-93.8-42-93.8-93.8c0-51.8,42-93.8,93.8-93.8s93.8,42,93.8,93.8
  C364,264.2,322,306.2,270.2,306.2z"/>
<circle class="st5" cx="158.4" cy="212.4" r="6.8"/>
<circle class="st5" cx="382.2" cy="212.4" r="6.8"/>
<path class="st5" d="M194.2,143.2l-2.9,0.6l-6.1-5.8c0,0,10.3-13.8,1.5-20.4c-8.8-6.6-14.6,1.6-14.6,1.6l-9.8,9.8l1.6,1.9l2.4-0.9
  l21.4,18.8l-0.8,2.3l2,1.4l6.8-7.1L194.2,143.2z M181.6,135l-9.9-9.1l3.3-3.4c0,0,3-4,7.9,0C187.7,126.5,181.6,135,181.6,135z"/>
<path class="st6" d="M230,103.8l-5.1-8c0,0-6.8-11.1-19.8-3.8c0,0-11.4,7.6-5.9,19.1l3.9,7.4c0,0,7.6,13.5,20.5,5.4
  C236.5,115.8,230,103.8,230,103.8z M223,120.1c-8.3,5.3-14-3.5-14-3.5l-5.3-8.5c0,0-3.8-6.4,3.4-12c0,0,6.8-4.4,11.1,1
  c4.4,5.4,6.4,8.6,6.4,8.6S230.3,115.5,223,120.1z"/>
<path class="st6" d="M266.8,108.1c0,0-10.7-23.2-13.2-26.4c-2.5-3.3-2.5-3.6-4.8-3.5c0,0-1.8-0.8-2.8,4.5
  c-1.1,5.3-3.6,12.6-4.3,28.9l-2.3,2.3l1.2,1.4l8.3-1.1l0.3-1.8l-2.9-1.1l0.3-6.5c0,0,0.3-1.2,5.4-1.9c5.1-0.8,6-0.1,6-0.1l2.8,5.4
  l-2.3,2.6l0.8,1.8l9-1.5l0.6-2.5L266.8,108.1z M254.1,98.5l-5.6,0.8l-1.8-1.4l2.3-11.8l1-0.2l6,10.8L254.1,98.5z"/>
<path class="st6" d="M300.6,81.4c0,0-2.8-3.3-19.6-4.8l-0.4,2l1.5,2.2l-3.9,26.6l-1.1,1h-1.6l-0.3,2.4l9.6,1.9l0.8-1.8l-2.3-1.7
  l2.3-10.4l3.8-0.3c0,0,3.2,4.2,2.7,11l-2.3,3.2l0.8,1.4l8.5,1.3l1-1.8l-1.6-1.8c0,0,0.4-8.8-3.6-14.6c0,0,8.3-2.6,8.7-8.5
  C303.9,82.9,300.6,81.4,300.6,81.4z M297.9,88.7c-2.8,7.1-10.8,5.4-10.8,5.4l-1.3-1.2l1.3-8c0.7-4.1,5.3-3.1,5.3-3.1
  S299.5,84.4,297.9,88.7z"/>
<path class="st6" d="M338.7,100.3c0,0,1.3,2.6,0.6,5.3c-0.8,2.8,0.2,2.8,0.2,2.8l0.8,0.6c0,0,1.7,0.3,3.4-3.5
  c1.8-3.8,1.4-3.3,1.4-3.3s-2.4-6.9-8.3-9.2c-5.8-2.3-14.3-5.8-21.3,6.7c-6.9,12.5-3.7,17.4-3.7,17.4s1.2,4.1,4.8,6.7
  s9.9,6.3,16,0.3l-1.2-1.9c0,0-6.8,2.1-11.6-1.7c-4.8-3.8-2.8-10.1-2.8-10.1l5.4-10.1c0,0,3.4-7.3,11.4-3.3
  C338.4,99.1,338.7,100.3,338.7,100.3z"/>
<polygon class="st6" points="343.4,137.9 352.7,129.9 361.8,140.7 353.4,148.7 350.2,148.1 348.6,149.7 355.1,157.6 357.5,155.6 
  356.8,153.5 377.5,135.3 380.3,135.4 381.5,134.2 375.1,126.6 373,128.1 373.3,130.1 365.4,137.4 356.2,126.9 364,119.7 
  365.4,119.3 366.5,120.3 368.6,118.6 361.7,110.9 359.7,112.4 360.2,115.1 340.3,133.2 337,132.7 334.9,134.3 341.6,142.2 
  343.5,140.6   "/>
<path class="st5" d="M160.8,287.5c0.4,0,2.9,1,2.9,1l21.9-16.3l0.6-3.3l1.3-1l6.3,7.9l-1,1.4l-2.9-0.6L168,293.7l0.1,2l-1.6,1.4
  l-6.6-8.4L160.8,287.5z"/>
<path class="st5" d="M260.2,346.2c0.2-0.3,2.6-1.6,2.6-1.6l0.9-27.3l-2.2-2.5l0-1.6l10.1,0l0.5,1.6l-2.3,1.9l-0.2,27.8l1.6,1.1
  l0.1,2.1l-10.7,0L260.2,346.2z"/>
<polygon class="st5" points="185.6,314.5 184,316.6 176.8,311.2 178.1,309.2 181.2,309.6 197.4,287.4 196.7,285.2 198.4,283.5 
  204.6,288 203,314 214.3,300.1 213.3,298.1 214.9,296.2 221.8,300.9 220.5,302.6 218,302.5 198.4,327.6 195,324.9 198.1,294.6 
  185,311.6   "/>
<polygon class="st5" points="336.3,327 337.7,329.3 330.1,334.1 328.7,332.2 330.2,329.4 315,306.4 312.8,306.3 311.8,304.2 
  318.2,299.9 341.9,310.5 332.9,295.1 330.7,295.3 329.5,293.2 336.2,288.3 337.4,290.1 336.4,292.4 353.1,319.7 349.3,321.9 
  322.1,308.3 333.4,326.6   "/>
<path class="st6" d="M311.4,338.4c0,0-11.9-22.5-14.6-25.6c-2.7-3.1-2.7-3.4-5-3.2c0,0-1.8-0.7-2.6,4.7c-0.8,5.4-2.9,12.8-2.7,29
  l-2.2,2.4l1.2,1.3l8.2-1.5l0.2-1.9l-3-0.9l0-6.5c0,0,0.3-1.2,5.3-2.2c5-1,6-0.4,6-0.4l3.1,5.2l-2.1,2.7l0.9,1.7l8.9-2l0.4-2.5
  L311.4,338.4z M298.3,329.5l-5.6,1.1l-1.8-1.3l1.7-12l1-0.2l6.6,10.5L298.3,329.5z"/>
<path class="st5" d="M242.9,309.7c-7.1-2.6-14.5-4.4-14.5-4.4l-1,2.3l2.4,2.8l-8,25.7l-2.3,0.9l-0.8,1.5l13.3,5.1
  c0,0,15.6,3.1,19-11.4C254.4,317.8,250,312.4,242.9,309.7z M245.2,329.2c-4.1,15.3-17.5,7.6-17.5,7.6l7.8-25.1
  C235.5,311.6,249.2,313.9,245.2,329.2z"/>
<path class="st5" d="M359.5,276.1l1.4-1.3l-5.3-4.5c0,0-6.4,1.5-9.1,6.9c-2.8,5.4-2.4,10.3,1.6,13.3s8.9,4.7,15.1-1.1
  c6.3-5.9,9.8,0,9.8,0s2.5,3.8-1.5,7.4c-4,3.6-9.9,1.8-9.9,1.8s-2.5,0.6-1.6,2.9c0,0,7.9,5.8,14.8-2.3c6.9-8,1.6-13,1.6-13
  s-5.9-9.3-13.8-3.4c-7.9,5.9-9.5,4.5-11.4,3.3c-1.9-1.3-2.5-4.8-0.5-7.4S357.1,275.2,359.5,276.1z"/>
<path class="st6" d="M200.7,198.1c0,0,6.6-1.3,8,5c0,0,0.4,2.5,2,2.5c1.6,0.1,2.1-2.2,2.1-2.2V198c0,0-3.2-4.1-12.1-4.2
  c-10.4-0.1-13.3,7.3-13.3,7.3s-1.8,2.2-2.1,11.4c-0.4,10.1,5.3,17.5,14.9,17.8c9.6,0.3,11.9-7,11.9-7l-1.6-2c0,0-3.5,5-10.1,4.6
  c-6.6-0.5-9.1-7.5-8.6-13.8S192.7,199.1,200.7,198.1z"/>
<path class="st6" d="M246.1,226.3c0,0-2.2-9.3-6.5-13.8c0,0,7.5-3.5,7.2-10.4c-0.3-6.9-9.2-7.8-9.2-7.8l-15.2-0.5v3.2l2.3,1.4V225
  l-1.8,1.9c0,0-0.8,1.5-0.4,1.8c0.3,0.3,1,0.8,1,0.8h8.3l1.3-2l-3.3-1.8l0.3-9.8l3.6-1.5c0,0,4.4,3.9,5.6,11.4l-1.9,1.7l0.6,2.1h9
  l0.8-2.7L246.1,226.3z M229.7,210.8v-9.3c0-3.7,3.9-4.2,3.9-4.2s7.8-0.8,7.1,6.4C240.1,211,229.7,210.8,229.7,210.8z"/>
<polygon class="st6" points="257.6,194.3 256.9,195.9 259.4,197.9 259.4,225.9 256.9,227.4 258.6,229.5 279.3,229.5 281.1,228.3 
  281.5,221.8 280.3,221.2 276.8,224.8 265.3,224.8 265.3,212.4 272.9,212.4 275.8,214.9 277.3,213.8 277.3,207.1 276,205.3 
  273.7,208 265.3,208 265.3,198.5 274.3,198.3 278.3,201.6 280.3,201.6 280.3,195.2 279.6,194.4   "/>
<polygon class="st6" points="292.4,194.3 291.7,195.9 294.2,197.9 294.2,225.9 291.7,227.4 293.4,229.5 314,229.5 315.9,228.3 
  316.3,221.8 315,221.2 311.6,224.8 300.1,224.8 300.1,212.4 307.7,212.4 310.5,214.9 312.1,213.8 312.1,207.1 310.8,205.3 
  308.5,208 300,208 300,198.5 309.1,198.3 313,201.6 315.1,201.6 315.1,195.2 314.4,194.4   "/>
<path class="st6" d="M326.8,194.3v1.9l1.9,1.8v26.9l-1.9,1.7l1,2.6l8,0.3l1.8-2l-2.9-1.8v-8.2l5-4.5l6.9,12.7l-1.8,2l1,1.8h8.5
  l1-2.7l-2-0.8l-9.7-16.8l7.8-10.8l2.5-2l-0.3-2.2h-8.8l-1.5,1.2l2.1,2.6l-10.6,12.4v-12.4c0,0,2.7-1.8,2.7-2.1s-0.7-1.7-0.7-1.7
  H326.8z"/>
<path class="st7" d="M59.5,282c0,0,5.2,8.1,6.3,16.8c1.2,8.7,2,17.2,2,17.2s-3.3,0-4.2-6.8l-0.8,0.9c0,0-4,16,5,25v0.9
  c0,0-8.2-5.3-7.3-17.9c0.8-12.7,1-14,1-14s-0.5-4.2-3.2-5.5l0.7-1.4l3.2,2.7l-3-11C59.2,288.8,58.3,286.2,59.5,282z"/>
<path class="st7" d="M66.5,321.5c0,0,7.8,8.8,5.5,28.9c0,0-0.7-12.2-1.8-18.3C69.1,325.8,66.5,321.5,66.5,321.5z"/>
<path class="st7" d="M65.8,341c0,0,2.5,13.5,8,21.5c0,0-3-2-6-10.8S65.8,341,65.8,341z"/>
<path class="st7" d="M65.7,357c0,0,0.8,8.8,3.8,9.2l-1,2.8c0,0-6-4.5-5.4-8.8C63.7,355.9,65.7,357,65.7,357z"/>
<path class="st7" d="M59.3,268c0,0,2,0.5,3.8,11.3s2.6,11.3,2.6,11.3l0,0c0,0-3.3-5.9-3.5-11.3C62,273.8,59.3,268,59.3,268z"/>
<circle class="st8" cx="6.7" cy="285.9" r="4.7"/>
<g>
  <path d="M69.5,425.7c-0.5,0-1.1-0.3-1.3-0.8c-0.4-0.8-3-1.9-5.2-2.4c-1,0-4.9-0.2-9-3.4c-5-3.9-2.2-15-1.8-16.3
    c0.2-0.7,0.9-1.2,1.7-1.1c0.8,0.1,1.3,0.8,1.3,1.5c-0.1,3.3,0.4,6.7,1.1,7.3c1,0.6,7.8,1.1,13.4,1.2c0.8,0,1.5,0.7,1.5,1.5
    c0,0.8-0.7,1.5-1.5,1.5c-3-0.1-12.8-0.4-14.9-1.7c-0.2-0.1-0.3-0.2-0.5-0.4c0.2,1.7,0.7,3.2,1.7,4c3.8,3,7.1,2.8,7.2,2.8
    c0.1,0,0.3,0,0.5,0c1.4,0.3,6.1,1.6,7.4,4c0.4,0.7,0.1,1.6-0.6,2C70,425.6,69.7,425.7,69.5,425.7z"/>
  <circle class="st8" cx="72.5" cy="428.9" r="4.7"/>
  <circle class="st9" cx="72.8" cy="414" r="4.5"/>
  <path d="M69.7,263l3.1,11.5v16.2l-1.5-3l-0.9-0.7l-1.3-3.4h-1.8c0,0,7,14.3,7.8,30.1c0.8,15.8,1,17.7,1,17.7l-2-1.5l0.2,1.5
    L75,336c0,0,0.7,11.7-0.5,16.5c-1.2,4.8-0.5,3.7-0.5,3.7l1.2,3.8v3.2l-0.7,1.7l0.3,2.3c0,0,4.2,12.8-20,38l-2.2,2.8
    c0,0-9.8-6.5-12.7-7.5c-2.8-1-2.8-1-2.8-1s-2.2-7.2-2-7.7s0-5.5,0-5.5l-1.2-1.7c0,0-3.8-4-7.7-45c0,0,11.8-6.7,17-16.8
    s8.1-28.5,8.1-28.5l-0.3-1.5c0,0-2.3,15.7-11.2,32.5c0,0-5.3,7.7-13.7,11.2c0,0-0.6-16.3,6.9-29.5l-0.4-1.4c0,0-3.8,4.9-5.7,12.9
    c0,0-2.7-9.8,1.2-29.9l0.2-4.3l-0.5-3.2l3.5-5.2l-1.2-2.3l5-8.8l-6.7,5.3l-0.7-1c0,0-0.2-5.3,2.2-8l-6.7,1.2c0,0-1.3-4.8,6.3-10.8
    c0,0-4-1.3-10,1.8c0,0-1-5.3,9.2-9.8c0,0,1.3-2.2-6.3-4.3l-1-1.8l9.7,0.8c0,0,1-3.5-3.5-7.9l9.3,2.6l4.2-11.8l-0.3-1.5
    c0,0-0.5-7.4,8.5-7.4s8.9,4.9,8.9,4.9l-1.7,2.4l0.7,1.8l-3.3,1.8l1.8,2.8l2.8-2.8l1.5,7.3l8.3-3.1l1.2,0.8l-1.2,4.3h5.8l-1.3,6.3
    c0,0,4.5,0.8,6.7,5.5l-5,0.8l2.7,2.5l-1.8,2.3l2,1.3c0,0-6.3,2.5-6.5,3.5c0,0,5.7,5.2,6.2,9.7l0.5,3.7L69.7,263z"/>
  <path class="st7" d="M51,314.5c0,0-16,27.6-15.8,41.7c0.2,14.1,6,15.5,6,15.5s-7.2-5.7-3.7-20.2C41,337,51,314.5,51,314.5
    L51,314.5z"/>
  <path class="st7" d="M57.3,265.3l1,1.3c0,0-6.3,36.9-5.7,45.7v-19.5l-0.7-2.2L57.3,265.3z"/>
  <path class="st7" d="M52.7,270.8L52.7,270.8l-7.3,6.5c0,0-10.8,5.4-12.1,16.6l0,0c0,0-0.4-8.3,9.8-17.3S52.7,270.8,52.7,270.8z"/>
  <path class="st7" d="M51.3,279.3H50c0,0-3.7,6-5.1,16.2s-3.7,13-3.7,13l-1.4,1.3l2.3-8.6c0,0,2-18.8,6-21.8s3.2-1.8,3.2-1.8V279.3
    z"/>
  <path class="st2" d="M42.6,227.9l7.2,5.8l1.3-6.7l1.7,5.5l4.7-5.5v6.7l9.2-3.3l-2.2,6.2c0,0,7-0.3,6.5,0s-4.3,3.5-4.3,3.5l4.4,1.7
    l-3,2.3l6.7,6.5h-8l3,8.2l-5.1-1.2l1.3,6.5l-8.3-3.3l-3.5,3.3l-1.8-5.7l-2.3,5l-2.6-3l-7.5,9.2l4.8-11.7c0,0-5.8-0.2-13.2,7.3
    l7.8-8.3l-11.8,1.5c0,0,2.7-7.5,7.8-8.8c0,0-7.1-1.5-11.2,0.3c0,0-1.7-1.7,7-5.5l2.3-4.5l4.8,1.2l-4.2-7.8l6.2,1.5L42.6,227.9z"/>
  <path d="M17.7,308.5c-0.8,0-1.5-0.6-1.5-1.4c-0.3-7,7.3-19.8,7.7-20.4c0-0.1,0.1-0.1,0.1-0.2c0.1-0.1,10-12.7,12.9-21.7
    c3.2-9.9,1.8-22.8,1.1-27.9c-0.6-4.1,0.6-10.4,1.7-15.2c-5.1,7.4-5.8,13.7-5.8,24c0,12.8-2.3,16-8.3,21.3
    c-5.3,4.6-13.4,17.1-13.5,17.3c-0.5,0.7-1.4,0.9-2.1,0.4c-0.7-0.5-0.9-1.4-0.4-2.1c0.3-0.5,8.5-13,14-17.9
    c5.2-4.6,7.3-6.9,7.3-19.1c0-13.3,1.1-20.7,11-31.5c0.5-0.5,1.2-0.6,1.9-0.3c0.6,0.4,0.9,1.1,0.7,1.8c0,0.1-4.5,14.3-3.5,20.9
    c0.8,5.3,2.1,18.7-1.2,29.2c-3,9.2-12.4,21.4-13.4,22.6c-2.1,3.5-7.4,13.5-7.2,18.6C19.2,307.8,18.6,308.5,17.7,308.5
    C17.7,308.5,17.7,308.5,17.7,308.5z"/>
  <circle class="st9" cx="14.7" cy="305.6" r="4.5"/>
  <ellipse class="st9" cx="49.7" cy="216.9" rx="6.1" ry="2.3"/>
  <ellipse class="st9" cx="50.2" cy="225.1" rx="6.1" ry="2.3"/>
  <ellipse class="st7" cx="50.2" cy="220.4" rx="6.1" ry="2.3"/>
  <path class="st2" d="M58.1,302.8v0.8c0,0,2.5,17.2,0,31.7c-2.5,14.5-3.3,30.9-3.3,30.9s8.3,10.5,12.5,21.5l-13.8,18.5l-15.8-7.8
    l-1.5-5.6l0.7-6.3l-2-1.8l3.3-1.7l9-10.2c0,0,5.5-26.2,7.7-43.4S58.1,302.8,58.1,302.8z"/>
</g>
<g>
  <path d="M471.9,425.7c0.5,0,1.1-0.3,1.3-0.8c0.4-0.8,3-1.9,5.2-2.4c1,0,4.9-0.2,9-3.4c5-3.9,2.2-15,1.8-16.3
    c-0.2-0.7-0.9-1.2-1.7-1.1c-0.8,0.1-1.3,0.8-1.3,1.5c0.1,3.3-0.4,6.7-1.1,7.3c-1,0.6-7.8,1.1-13.4,1.2c-0.8,0-1.5,0.7-1.5,1.5
    c0,0.8,0.7,1.5,1.5,1.5c3-0.1,12.8-0.4,14.9-1.7c0.2-0.1,0.3-0.2,0.5-0.4c-0.2,1.7-0.7,3.2-1.7,4c-3.8,3-7.1,2.8-7.2,2.8
    c-0.1,0-0.3,0-0.5,0c-1.4,0.3-6.1,1.6-7.4,4c-0.4,0.7-0.1,1.6,0.6,2C471.4,425.6,471.6,425.7,471.9,425.7z"/>
  <circle class="st8" cx="468.9" cy="428.9" r="4.7"/>
  <circle class="st9" cx="468.6" cy="414" r="4.5"/>
  <path d="M471.7,263l-3.1,11.5v16.2l1.5-3l0.9-0.7l1.3-3.4h1.8c0,0-7,14.3-7.8,30.1s-1,17.7-1,17.7l2-1.5l-0.2,1.5l-0.8,4.7
    c0,0-0.7,11.7,0.5,16.5c1.2,4.8,0.5,3.7,0.5,3.7l-1.2,3.8v3.2l0.7,1.7l-0.3,2.3c0,0-4.2,12.8,20,38l2.2,2.8c0,0,9.8-6.5,12.7-7.5
    c2.8-1,2.8-1,2.8-1s2.2-7.2,2-7.7c-0.2-0.5,0-5.5,0-5.5l1.2-1.7c0,0,3.8-4,7.7-45c0,0-11.8-6.7-17-16.8
    c-5.2-10.2-8.1-28.5-8.1-28.5l0.3-1.5c0,0,2.3,15.7,11.2,32.5c0,0,5.3,7.7,13.7,11.2c0,0,0.6-16.3-6.9-29.5l0.4-1.4
    c0,0,3.8,4.9,5.7,12.9c0,0,2.7-9.8-1.2-29.9l-0.2-4.3l0.5-3.2l-3.5-5.2l1.2-2.3l-5-8.8l6.7,5.3l0.7-1c0,0,0.2-5.3-2.2-8l6.7,1.2
    c0,0,1.3-4.8-6.3-10.8c0,0,4-1.3,10,1.8c0,0,1-5.3-9.2-9.8c0,0-1.3-2.2,6.3-4.3l1-1.8l-9.7,0.8c0,0-1-3.5,3.5-7.9l-9.3,2.6
    l-4.2-11.8l0.3-1.5c0,0,0.5-7.4-8.5-7.4c-9-0.1-8.9,4.9-8.9,4.9l1.7,2.4l-0.7,1.8l3.3,1.8l-1.8,2.8l-2.8-2.8l-1.5,7.3l-8.3-3.1
    l-1.2,0.8l1.2,4.3H467l1.3,6.3c0,0-4.5,0.8-6.7,5.5l5,0.8l-2.7,2.5l1.8,2.3l-2,1.3c0,0,6.3,2.5,6.5,3.5c0,0-5.7,5.2-6.2,9.7
    l-0.5,3.7L471.7,263z"/>
  <path class="st7" d="M490.4,314.5c0,0,16,27.6,15.8,41.7c-0.2,14.1-6,15.5-6,15.5s7.2-5.7,3.7-20.2
    C500.4,337,490.4,314.5,490.4,314.5L490.4,314.5z"/>
  <path class="st7" d="M484,265.3l-1,1.3c0,0,6.3,36.9,5.7,45.7v-19.5l0.7-2.2L484,265.3z"/>
  <path class="st7" d="M488.7,270.8L488.7,270.8l7.3,6.5c0,0,10.8,5.4,12.1,16.6l0,0c0,0,0.4-8.3-9.8-17.3S488.7,270.8,488.7,270.8z
    "/>
  <path class="st7" d="M490.1,279.3h1.3c0,0,3.7,6,5.1,16.2s3.7,13,3.7,13l1.4,1.3l-2.3-8.6c0,0-2-18.8-6-21.8s-3.2-1.8-3.2-1.8
    V279.3z"/>
  <path class="st7" d="M498.8,227.9l-7.2,5.8l-1.3-6.7l-1.7,5.5l-4.7-5.5v6.7l-9.2-3.3l2.2,6.2c0,0-7-0.3-6.5,0s4.3,3.5,4.3,3.5
    l-4.4,1.7l3,2.3l-6.7,6.5h8l-3,8.2l5.1-1.2l-1.3,6.5l8.3-3.3l3.5,3.3l1.8-5.7l2.3,5l2.6-3l7.5,9.2l-4.8-11.7c0,0,5.8-0.2,13.2,7.3
    l-7.8-8.3l11.8,1.5c0,0-2.7-7.5-7.8-8.8c0,0,7.1-1.5,11.2,0.3c0,0,1.7-1.7-7-5.5l-2.3-4.5l-4.8,1.2l4.2-7.8l-6.2,1.5L498.8,227.9z
    "/>
  <path d="M523.7,308.5c0.8,0,1.5-0.6,1.5-1.4c0.3-7-7.3-19.8-7.7-20.4c0-0.1-0.1-0.1-0.1-0.2c-0.1-0.1-10-12.7-12.9-21.7
    c-3.2-9.9-1.8-22.8-1.1-27.9c0.6-4.1-0.6-10.4-1.7-15.2c5.1,7.4,5.8,13.7,5.8,24c0,12.8,2.3,16,8.3,21.3
    c5.3,4.6,13.4,17.1,13.5,17.3c0.5,0.7,1.4,0.9,2.1,0.4c0.7-0.5,0.9-1.4,0.4-2.1c-0.3-0.5-8.5-13-14-17.9
    c-5.2-4.6-7.3-6.9-7.3-19.1c0-13.3-1.1-20.7-11-31.5c-0.5-0.5-1.2-0.6-1.9-0.3c-0.6,0.4-0.9,1.1-0.7,1.8c0,0.1,4.5,14.3,3.5,20.9
    c-0.8,5.3-2.1,18.7,1.2,29.2c3,9.2,12.4,21.4,13.4,22.6c2.1,3.5,7.4,13.5,7.2,18.6C522.1,307.8,522.8,308.5,523.7,308.5
    C523.6,308.5,523.7,308.5,523.7,308.5z"/>
  <circle class="st9" cx="526.6" cy="305.6" r="4.5"/>
  <ellipse class="st10" cx="491.6" cy="216.9" rx="6.1" ry="2.3"/>
  <ellipse class="st10" cx="491.1" cy="225.1" rx="6.1" ry="2.3"/>
  <ellipse class="st2" cx="491.1" cy="220.4" rx="6.1" ry="2.3"/>
  <path class="st7" d="M483.3,302.8v0.8c0,0-2.5,17.2,0,31.7c2.5,14.5,3.3,30.9,3.3,30.9s-8.3,10.5-12.5,21.5l13.8,18.5l15.8-7.8
    l1.5-5.6l-0.7-6.3l2-1.8l-3.3-1.7l-9-10.2c0,0-5.5-26.2-7.7-43.4S483.3,302.8,483.3,302.8z"/>
</g>
<text transform="matrix(1 0 0 1 308.0332 428.9043)" class="st11 st12">®</text>
</svg>
